<svg xmlns="http://www.w3.org/2000/svg" width="36" height="36" viewBox="0 0 36 36" fill="none">
  <path d="M8.2962 16.0265L17.8572 19.3536C17.95 19.3859 18.0504 19.3859 18.1432 19.3536L32.991 14.1867C33.4033 14.0433 33.4033 13.4345 32.991 13.2911L18.1432 8.12422C18.0504 8.09192 17.95 8.09192 17.8572 8.12422L3.00937 13.2911C2.59714 13.4345 2.59714 14.0433 3.00937 14.1867L8.2962 16.0265Z" fill="url(#paint0_linear_70_716)"/>
  <path d="M9.08895 21.972V19.039L17.0708 21.8166C17.6741 22.0265 18.3263 22.0265 18.9296 21.8166L27.1753 18.9472V21.972C27.1753 23.7721 25.9582 25.3219 24.2674 25.675L18.8415 26.8079C18.3732 26.9056 17.891 26.9056 17.4227 26.8079L11.9968 25.675C10.306 25.3219 9.08895 23.7721 9.08895 21.972Z" fill="url(#paint1_linear_70_716)"/>
  <defs>
    <linearGradient id="paint0_linear_70_716" x1="2.7002" y1="18" x2="33.3002" y2="18" gradientUnits="userSpaceOnUse">
      <stop stop-color="#34BCF6"/>
      <stop offset="1" stop-color="#63DDF8"/>
    </linearGradient>
    <linearGradient id="paint1_linear_70_716" x1="2.7002" y1="18" x2="33.3002" y2="18" gradientUnits="userSpaceOnUse">
      <stop stop-color="#34BCF6"/>
      <stop offset="1" stop-color="#63DDF8"/>
    </linearGradient>
  </defs>
</svg>