<?xml version="1.0" standalone="no"?>
<!DOCTYPE svg PUBLIC "-//W3C//DTD SVG 20010904//EN"
 "http://www.w3.org/TR/2001/REC-SVG-20010904/DTD/svg10.dtd">
<svg version="1.0" xmlns="http://www.w3.org/2000/svg"
 width="700.000000pt" height="700.000000pt" viewBox="0 0 700.000000 700.000000"
 preserveAspectRatio="xMidYMid meet">
<metadata>
Created by potrace 1.14, written by Peter Selinger 2001-2017
</metadata>
<g transform="translate(0.000000,700.000000) scale(0.100000,-0.100000)"
fill="#000000" stroke="none">
<path d="M3388 5390 c-62 -21 -203 -70 -313 -108 -110 -38 -526 -183 -925
-322 -862 -299 -921 -320 -940 -327 -8 -3 -19 -7 -25 -9 -27 -7 -353 -121
-361 -126 -5 -3 -66 -24 -136 -47 -69 -23 -132 -48 -138 -56 -36 -43 -25 -121
22 -146 12 -7 72 -29 133 -50 60 -20 209 -72 330 -114 121 -42 283 -99 360
-125 77 -27 226 -79 330 -115 105 -37 215 -75 245 -85 30 -10 93 -32 140 -48
91 -32 457 -160 680 -237 74 -25 144 -50 155 -55 25 -11 314 -110 454 -156
l104 -35 66 21 c36 12 75 25 86 30 11 5 133 48 270 95 138 48 301 104 363 126
194 68 330 115 557 194 121 42 321 112 445 155 124 43 331 115 460 160 129 45
253 88 275 95 117 39 387 136 405 145 41 22 56 84 31 126 -15 24 -39 37 -142
72 -68 24 -153 54 -189 67 -36 13 -123 44 -195 68 -224 78 -367 127 -465 162
-52 18 -156 54 -230 80 -192 66 -299 103 -920 321 -184 64 -353 122 -375 130
-22 7 -119 40 -215 74 -96 34 -187 65 -202 70 -19 6 -55 -2 -140 -30z"/>
<path d="M5250 3303 c-8 -3 -125 -43 -260 -90 -135 -47 -335 -116 -445 -155
-110 -38 -249 -87 -310 -108 -60 -21 -171 -59 -245 -85 -386 -135 -385 -134
-500 -132 -120 3 -5 -34 -1105 351 -335 117 -612 212 -613 210 -6 -4 -4 -638
3 -674 28 -165 88 -289 195 -404 108 -116 243 -187 420 -220 21 -4 420 -88
485 -102 11 -2 34 -7 50 -9 17 -3 37 -8 45 -10 8 -2 26 -6 40 -9 14 -2 104
-21 200 -41 219 -47 230 -48 315 -49 85 0 101 2 340 53 105 22 206 43 225 46
19 3 55 11 80 16 63 15 61 14 200 44 69 14 145 30 170 35 294 58 401 104 527
229 94 94 157 206 194 347 19 72 21 109 23 422 1 228 -2 342 -9 341 -5 0 -17
-3 -25 -6z"/>
</g>
</svg>
